<svg xmlns="http://www.w3.org/2000/svg" viewBox="0 0 26 26">
  <rect width="26" height="26" fill="#050914"/>
  <rect x="6" y="6" width="14" height="14" rx="1.5" stroke="#38BDF8" stroke-width="1.6" fill="none"/>
  <circle cx="9.3" cy="9.3" r="1.2" fill="#22D3EE"/>
  <g fill="#00B8FF">
    <rect x="1.5" y="5.25" width="3.5" height="1.5"/>
    <rect x="1.5" y="9.25" width="3.5" height="1.5"/>
    <rect x="1.5" y="13.25" width="3.5" height="1.5"/>
    <rect x="1.5" y="17.25" width="3.5" height="1.5"/>
    <rect x="21" y="5.25" width="3.5" height="1.5"/>
    <rect x="21" y="9.25" width="3.5" height="1.5"/>
    <rect x="21" y="13.25" width="3.5" height="1.5"/>
    <rect x="21" y="17.25" width="3.5" height="1.5"/>
    <rect x="5.25" y="1.5" width="1.5" height="3.5"/>
    <rect x="9.25" y="1.5" width="1.5" height="3.5"/>
    <rect x="13.25" y="1.5" width="1.5" height="3.5"/>
    <rect x="17.25" y="1.5" width="1.5" height="3.5"/>
    <rect x="5.25" y="21" width="1.5" height="3.5"/>
    <rect x="9.25" y="21" width="1.5" height="3.5"/>
    <rect x="13.25" y="21" width="1.5" height="3.5"/>
    <rect x="17.25" y="21" width="1.5" height="3.5"/>
  </g>
</svg>
